<svg xmlns="http://www.w3.org/2000/svg" width="482" height="127" viewBox="75.984 54.494 482 127" enable-background="new 75.984 54.494 482 127"><g fill="#052336"><path d="M259.458 139.521l-17.842-28.93h-.967v28.93h-13.021v-69.443h21.22c11.768 0 22.183 7.72 22.183 20.257 0 10.417-7.714 17.363-15.431 19.291l20.253 29.896h-16.395zm-12.539-58.829h-6.271v19.29h6.271c5.787 0 10.608-2.893 10.608-9.646.001-6.751-4.82-9.644-10.608-9.644zM290.804 123.131c.967 4.824 4.826 8.684 9.647 8.684 4.822 0 7.717-.963 11.283-4.824l9.07 4.73c-4.919 6.844-10.704 9.254-20.353 9.254-13.506 0-22.186-9.16-22.186-21.701 0-12.539 8.68-21.703 22.186-21.703 12.638 0 21.705 9.648 21.705 20.736v4.824h-31.352zm9.648-15.432c-5.789 0-8.682 3.859-9.647 7.715h19.298c-.967-3.857-3.861-7.715-9.651-7.715zM356.878 135.67h-.197c-3.662 3.854-8.486 5.305-14.271 5.305-8.68 0-15.434-3.471-15.434-12.055 0-11.578 8.68-14.471 22.188-14.471h7.715c0-6.75-1.93-7.715-5.783-7.715-8.686 0-14.471 1.928-18.328 3.857l-2.898-8.683c6.756-2.89 13.504-4.339 23.15-4.339 6.75 0 15.432 1.45 15.432 14.951v27.002h-11.57v-3.854h-.004zm-7.714-13.502c-7.723 0-9.65 1.928-9.65 5.787 0 1.932 1.93 3.857 5.785 3.857 4.828 0 10.613-4.822 11.58-9.645h-7.715v.001zM407.519 139.521v-3.854h-.199c-3.186 3.854-8.004 5.307-13.789 5.307-9.65 0-18.328-8.199-18.328-21.703 0-13.501 8.678-21.702 18.328-21.702 5.785 0 10.605 1.45 13.789 5.304h.199v-33.758h12.055v70.406h-12.055zm-10.129-30.859c-4.826 0-9.648 3.858-9.648 10.609 0 6.754 4.822 10.615 9.648 10.615 5.783 0 10.129-3.861 10.129-10.615 0-6.751-4.346-10.609-10.129-10.609zM481.302 139.521v-23.148c0-4.814-1.93-7.711-6.752-7.711s-7.234 3.376-7.234 7.711v23.148h-12.061v-23.148c0-4.814-1.928-7.711-6.748-7.711-3.861 0-7.232 3.858-7.232 7.711v23.148h-12.059v-40.502h12.059v3.854h.191c3.18-3.854 7.621-5.304 12.828-5.304 5.209 0 8.68 2.412 10.607 6.269 4.824-4.818 8.682-6.269 14.471-6.269 8.678 0 13.984 6.269 13.984 13.988v27.964h-12.054zM502.523 91.302v-13.504h12.057v13.504h-12.057zm0 48.219v-40.502h12.057v40.502h-12.057zM524.218 139.521v-70.406h12.062v70.406h-12.062zM545.927 139.521v-70.406h12.057v70.406h-12.057z"/></g><polygon fill="#052336" points="144.936,84.275 144.936,94.101 173.552,86.323 173.552,76.494"/><polygon fill="#052336" points="121.119,84.275 92.5,76.494 92.5,86.323 121.119,94.101"/><polygon fill="#052336" points="144.936,104.231 144.936,114.056 173.552,106.277 173.552,96.453"/><polygon fill="#052336" points="121.119,104.231 92.5,96.453 92.5,106.277 121.119,114.056"/><polygon fill="#052336" points="144.936,124.187 144.936,134.013 173.552,126.232 173.552,116.408"/><polygon fill="#052336" points="121.119,124.187 92.5,116.408 92.5,126.232 121.119,134.013"/><path d="M122.026 74.324l-36.274-9.828v69.475c.027.182.315.551.503.631l41.609 11.314v-67.551c-1.158-1.351-3.138-3.197-5.838-4.041z" fill="none"/><path d="M138.176 145.929l41.651-11.336c.168-.072.456-.441.483-.645l-.006-69.453-36.193 9.882c-2.991.813-5.022 3.018-6.02 4.351.05.39.085.784.085 1.188v66.013z" fill="none"/><path fill="#052336" d="M182.082 54.494c-.745 0-1.503.101-2.255.309l-38.198 10.451c-3.69 1.008-6.516 2.959-8.547 4.892 1.89 1.771 4.524 4.856 5.009 8.583.998-1.333 3.029-3.536 6.02-4.351l36.193-9.882.006 69.453c-.027.201-.315.57-.483.645l-41.651 11.336v4.678c0 1.771.214 3.436.567 4.988l43.574-11.852c4.26-1.152 7.472-5.354 7.472-9.773v-71.561c0-4.508-3.313-7.916-7.707-7.916z"/><path fill="#052336" d="M127.866 145.916l-41.609-11.314c-.188-.08-.476-.449-.503-.631v-69.475l36.273 9.828c2.699.844 4.679 2.689 5.839 4.041v-11.843c-.973-.483-2.013-.918-3.142-1.262l-38.495-10.458c-.751-.208-1.503-.309-2.254-.309-4.387 0-7.702 3.408-7.702 7.916v71.561c0 4.422 3.212 8.621 7.474 9.773l44.395 12.061c-.185-1.789-.277-3.521-.277-5.221v-4.667z"/><path fill="#70B32D" d="M138.176 145.929v-66.015c0-.402-.035-.798-.085-1.188-.484-3.727-3.119-6.812-5.009-8.583-2.771-2.6-5.217-3.632-5.217-3.632v84.072c0 1.697.092 3.432.277 5.221.396 3.826 1.261 7.924 2.869 12.605 1.547 4.504 4.221 9.016 7.871 12.568.405.396.798.244.855-.32l1.002-9.723 7-1.357c.557-.102.589-.375.089-.641-2.342-1.246-3.819-2.77-4.861-4.172-1.631-2.248-3.36-5.361-4.226-9.172-.353-1.553-.567-3.217-.567-4.988.002.001.002-1.743.002-4.675z"/></svg>